<?xml version="1.0" standalone="no"?>
<!DOCTYPE svg PUBLIC "-//W3C//DTD SVG 1.1//EN"
"http://www.w3.org/Graphics/SVG/1.1/DTD/svg11.dtd">

<svg width="358" height="204" view_box="0 0 358 204"
xmlns="http://www.w3.org/2000/svg"
xmlns:link="http://www.w3.org/1999/xlink">\n\n<desc>Généré par Mocodo 2.3.7 le Tue, 28 Apr 2020 07:49:32</desc>

<rect id="frame" x="0" y="0" width="358" height="204" fill="none" stroke="none" stroke-width="0"/>

<!-- Association envoie -->
<line x1="67" y1="77" x2="185" y2="77" stroke="#57483d" stroke-width="2"/>
<text x="130" y="69.0" fill="#57483d" font-family="Verdana" font-size="12">0,N</text>
<line x1="297" y1="77" x2="185" y2="77" stroke="#57483d" stroke-width="2"/>
<text x="219" y="69.0" fill="#57483d" font-family="Verdana" font-size="12">1,1</text>
<g id="association-envoie">
	<path d="M 199 52 a 14 14 90 0 1 14 14 V 77 h -56 V 66 a 14 14 90 0 1 14 -14" fill="#c6aea5" stroke="#c6aea5" stroke-width="0"/>
	<path d="M 213 77.0 v 11 a 14 14 90 0 1 -14 14 H 171 a 14 14 90 0 1 -14 -14 V 77.0 H 56" fill="#d3b5b2" stroke="#d3b5b2" stroke-width="0"/>
	<rect x="157" y="52" width="56" height="50" fill="none" rx="14" stroke="none" stroke-width="2"/>
	<line x1="157" y1="77" x2="213" y2="77" stroke="none" stroke-width="1"/>
	<text x="164" y="69.7" fill="#422f2c" font-family="Verdana" font-size="12">envoie</text>
</g>

<!-- Association reçoit -->
<line x1="67" y1="77" x2="185" y2="170" stroke="#57483d" stroke-width="2"/>
<text x="130" y="120.606271556" fill="#57483d" font-family="Verdana" font-size="12">0,N</text>
<line x1="297" y1="77" x2="185" y2="170" stroke="#57483d" stroke-width="2"/>
<text x="219" y="118.326706336" fill="#57483d" font-family="Verdana" font-size="12">1,1</text>
<g id="association-reçoit">
	<path d="M 196 145 a 14 14 90 0 1 14 14 V 170 h -50 V 159 a 14 14 90 0 1 14 -14" fill="#c6aea5" stroke="#c6aea5" stroke-width="0"/>
	<path d="M 210 170.0 v 11 a 14 14 90 0 1 -14 14 H 174 a 14 14 90 0 1 -14 -14 V 170.0 H 50" fill="#d3b5b2" stroke="#d3b5b2" stroke-width="0"/>
	<rect x="160" y="145" width="50" height="50" fill="none" rx="14" stroke="none" stroke-width="2"/>
	<line x1="160" y1="170" x2="210" y2="170" stroke="none" stroke-width="1"/>
	<text x="167" y="162.7" fill="#422f2c" font-family="Verdana" font-size="12">reçoit</text>
</g>

<!-- Entity ADRESSE -->
<g id="entity-ADRESSE">
	<g id="frame-ADRESSE">
		<rect x="9" y="9" width="116" height="25" fill="#cbcbb5" stroke="#cbcbb5" stroke-width="0"/>
		<rect x="9" y="34.0" width="116" height="111" fill="#e4e3b4" stroke="#e4e3b4" stroke-width="0"/>
		<rect x="9" y="9" width="116" height="136" fill="none" stroke="none" stroke-width="2"/>
		<line x1="9" y1="34" x2="125" y2="34" stroke="none" stroke-width="1"/>
	</g>
	<text x="38" y="26.7" fill="#422f2c" font-family="Verdana" font-size="12">ADRESSE</text>
	<text x="14" y="51.7" fill="#57483d" font-family="Verdana" font-size="12">référence interne</text>
	<line x1="14" y1="54" x2="119" y2="54" stroke="#57483d" stroke-width="1"/>
	<text x="14" y="68.7" fill="#57483d" font-family="Verdana" font-size="12">nom</text>
	<text x="14" y="85.8" fill="#57483d" font-family="Verdana" font-size="12">ligne principale</text>
	<text x="14" y="102.8" fill="#57483d" font-family="Verdana" font-size="12">complément</text>
	<text x="14" y="119.8" fill="#57483d" font-family="Verdana" font-size="12">code postal</text>
	<text x="14" y="136.8" fill="#57483d" font-family="Verdana" font-size="12">ville</text>
</g>

<!-- Entity COLIS -->
<g id="entity-COLIS">
	<g id="frame-COLIS">
		<rect x="245" y="18" width="104" height="25" fill="#cbcbb5" stroke="#cbcbb5" stroke-width="0"/>
		<rect x="245" y="43.0" width="104" height="93" fill="#e4e3b4" stroke="#e4e3b4" stroke-width="0"/>
		<rect x="245" y="18" width="104" height="118" fill="none" stroke="none" stroke-width="2"/>
		<line x1="245" y1="43" x2="349" y2="43" stroke="none" stroke-width="1"/>
	</g>
	<text x="277" y="35.7" fill="#422f2c" font-family="Verdana" font-size="12">COLIS</text>
	<text x="250" y="60.7" fill="#57483d" font-family="Verdana" font-size="12">numéro interne</text>
	<line x1="250" y1="63" x2="344" y2="63" stroke="#57483d" stroke-width="1"/>
	<text x="250" y="77.8" fill="#57483d" font-family="Verdana" font-size="12">contenu</text>
	<text x="250" y="94.8" fill="#57483d" font-family="Verdana" font-size="12">poids</text>
	<text x="250" y="111.8" fill="#57483d" font-family="Verdana" font-size="12">volume</text>
	<text x="250" y="128.8" fill="#57483d" font-family="Verdana" font-size="12">valeur estimée</text>
</g>
</svg>